<?xml version="1.0" encoding="utf-8"?>
<!-- Generator: Adobe Illustrator 28.0.0, SVG Export Plug-In . SVG Version: 6.00 Build 0)  -->
<svg version="1.1" id="图层_1" xmlns="http://www.w3.org/2000/svg" xmlns:xlink="http://www.w3.org/1999/xlink" x="0px" y="0px"
	 viewBox="0 0 595.28 841.89" style="enable-background:new 0 0 595.28 841.89;" xml:space="preserve">
<style type="text/css">
	.st0{fill:#476179;}
	.st1{fill:#FFFFFF;}
	.st2{font-family:'Arial-BoldMT';}
	.st3{font-size:9px;}
	.st4{fill:#FFFFFF;stroke:#FFFFFF;stroke-width:0.5;stroke-miterlimit:10;}
	.st5{fill:none;stroke:#FFFFFF;stroke-width:0.5;stroke-miterlimit:10;}
	.st6{opacity:0.5;fill:#455D7D;}
	.st7{fill:#455D7D;stroke:#FFFFFF;stroke-width:0.5;stroke-miterlimit:10;}
	.st8{font-size:1.1971px;}
	.st9{fill:#455D7D;}
	.st10{fill:none;stroke:#455D7D;stroke-width:0.1294;stroke-miterlimit:10;}
	.st11{fill:none;stroke:#FFFFFF;stroke-width:0.1294;stroke-miterlimit:10;}
	.st12{fill:#455D7D;stroke:#455D7D;stroke-width:0.0863;stroke-miterlimit:10;}
	.st13{fill:#FFFFFF;stroke:#FFFFFF;stroke-width:0.0863;stroke-miterlimit:10;}
	.st14{fill:#FFFFFF;stroke:#7A75AB;stroke-width:0.0863;stroke-miterlimit:10;}
	.st15{fill:#455D7D;stroke:#FFFFFF;stroke-width:0.0863;stroke-miterlimit:10;}
	.st16{fill:#FFFFFF;stroke:#455D7D;stroke-width:0.0789;stroke-miterlimit:10;}
	.st17{fill:none;stroke:#FFFFFF;stroke-width:0.0731;stroke-miterlimit:10;}
	.st18{fill:none;stroke:#455D7D;stroke-width:0.15;stroke-miterlimit:10;}
	.st19{fill:none;stroke:#FFFFFF;stroke-width:0.15;stroke-miterlimit:10;}
	.st20{fill:#FFFFFF;stroke:#455D7D;stroke-width:0.0863;stroke-miterlimit:10;}
</style>
<path class="st0" d="M348.25,429.42h-70.83c-3.48,0-6.3-2.82-6.3-6.3v-3.72c0-3.48,2.82-6.3,6.3-6.3h70.83c3.48,0,6.3,2.82,6.3,6.3
	v3.72C354.56,426.59,351.73,429.42,348.25,429.42z"/>
<text transform="matrix(1 0 0 1 275.389 424.6138)" class="st1 st2 st3">Bi</text>
<text transform="matrix(1 0 0 1 298.3929 424.6138)" class="st1 st2 st3">mics  Agent</text>
<g>
	<path class="st4" d="M288.91,417.49c0-1.32,1.03-2.41,2.34-2.48c0.05,0,0.1,0,0.15,0s0.1,0,0.14,0c2.68,0.07,4.83,2.27,4.83,4.97
		s-2.15,4.89-4.83,4.97c1.3-0.07,2.34-1.16,2.34-2.48c0-1.37-1.11-2.49-2.48-2.49C290.02,419.97,288.91,418.86,288.91,417.49"/>
	<path class="st5" d="M291.23,415.01c0.05,0,0.1,0,0.14,0c0.05,0,0.1,0,0.15,0c2.68,0.07,4.83,2.27,4.83,4.97
		c0,2.7-2.15,4.89-4.83,4.97"/>
	<path class="st6" d="M293.86,422.46c0,1.32-1.03,2.41-2.34,2.48c-0.05,0-0.1,0-0.15,0s-0.1,0-0.14,0
		c-2.68-0.07-4.83-2.27-4.83-4.97s2.15-4.89,4.83-4.97c-1.3,0.07-2.34,1.16-2.34,2.48c0,1.37,1.11,2.49,2.48,2.49
		C292.75,419.98,293.86,421.09,293.86,422.46"/>
	<path class="st7" d="M293.86,422.46c0,1.32-1.03,2.41-2.34,2.48c-0.05,0-0.1,0-0.15,0s-0.1,0-0.14,0
		c-2.68-0.07-4.83-2.27-4.83-4.97s2.15-4.89,4.83-4.97c-1.3,0.07-2.34,1.16-2.34,2.48c0,1.37,1.11,2.49,2.48,2.49
		C292.75,419.98,293.86,421.09,293.86,422.46"/>
	<text transform="matrix(1.0002 0 0 1 289.4006 424.0301)" class="st1 st2 st8">Omics</text>
	<text transform="matrix(1.0002 0 0 1 289.4006 424.0301)" class="st1 st2 st8">Omics</text>
	<text transform="matrix(1.0002 0 0 1 292.8479 418.1434)" class="st9 st2 st8">KG</text>
	<text transform="matrix(1.0002 0 0 1 292.8479 418.1434)" class="st9 st2 st8">KG</text>
	<g>
		<line class="st10" x1="288.93" y1="418.28" x2="290.37" y2="419.57"/>
		<line class="st10" x1="292.23" y1="419.18" x2="290.37" y2="419.57"/>
		<line class="st10" x1="294.13" y1="420.76" x2="292.23" y2="419.18"/>
		<line class="st10" x1="292.09" y1="416.58" x2="292.23" y2="419.18"/>
		<line class="st10" x1="288.93" y1="418.28" x2="292.09" y2="416.58"/>
		<line class="st11" x1="290.37" y1="419.57" x2="289.77" y2="422.24"/>
		<line class="st11" x1="294.13" y1="420.76" x2="289.77" y2="422.24"/>
		<path class="st12" d="M293.87,421.08c0.17,0.14,0.43,0.12,0.57-0.06c0.14-0.17,0.12-0.43-0.06-0.57
			c-0.17-0.14-0.43-0.12-0.57,0.06C293.67,420.68,293.7,420.93,293.87,421.08z"/>
		<path class="st12" d="M291.83,416.89c0.17,0.14,0.43,0.12,0.57-0.06c0.14-0.17,0.12-0.43-0.06-0.57
			c-0.17-0.14-0.43-0.12-0.57,0.06C291.64,416.49,291.66,416.75,291.83,416.89z"/>
		<path class="st13" d="M288.67,418.61c0.17,0.14,0.43,0.12,0.57-0.06c0.14-0.17,0.12-0.43-0.06-0.57s-0.43-0.12-0.57,0.06
			C288.48,418.21,288.5,418.47,288.67,418.61z"/>
		<path class="st14" d="M291.97,419.49c0.17,0.14,0.43,0.12,0.57-0.06c0.14-0.17,0.12-0.43-0.06-0.57s-0.43-0.12-0.57,0.06
			C291.77,419.09,291.8,419.35,291.97,419.49z"/>
		<path class="st15" d="M290.11,419.88c0.17,0.14,0.43,0.12,0.57-0.06c0.14-0.17,0.12-0.43-0.06-0.57
			c-0.17-0.14-0.43-0.12-0.57,0.06C289.91,419.48,289.94,419.74,290.11,419.88z"/>
		<path class="st13" d="M289.51,422.56c0.17,0.14,0.43,0.12,0.57-0.06c0.14-0.17,0.12-0.43-0.06-0.57s-0.43-0.12-0.57,0.06
			C289.31,422.16,289.34,422.41,289.51,422.56z"/>
		<path class="st16" d="M288.7,418.58c0.16,0.13,0.39,0.11,0.53-0.05c0.13-0.16,0.11-0.39-0.05-0.53c-0.16-0.13-0.39-0.11-0.53,0.05
			C288.51,418.22,288.54,418.45,288.7,418.58z"/>
		<path class="st16" d="M289.54,422.53c0.16,0.13,0.39,0.11,0.53-0.05c0.13-0.16,0.11-0.39-0.05-0.53
			c-0.16-0.13-0.39-0.11-0.53,0.05C289.35,422.16,289.38,422.4,289.54,422.53z"/>
		<path class="st17" d="M293.91,421.03c0.15,0.12,0.37,0.1,0.49-0.05c0.12-0.15,0.1-0.37-0.05-0.49c-0.15-0.12-0.37-0.1-0.49,0.05
			C293.74,420.69,293.76,420.91,293.91,421.03z"/>
		<path class="st17" d="M291.87,416.84c0.15,0.12,0.37,0.1,0.49-0.05c0.12-0.15,0.1-0.37-0.05-0.49s-0.37-0.1-0.49,0.05
			C291.71,416.5,291.73,416.72,291.87,416.84z"/>
	</g>
	<g>
		<line class="st18" x1="288.93" y1="418.28" x2="290.37" y2="419.57"/>
		<line class="st18" x1="292.23" y1="419.18" x2="290.37" y2="419.57"/>
		<line class="st18" x1="294.13" y1="420.76" x2="292.23" y2="419.18"/>
		<line class="st18" x1="292.09" y1="416.58" x2="292.23" y2="419.18"/>
		<line class="st18" x1="288.93" y1="418.28" x2="292.09" y2="416.58"/>
		<line class="st19" x1="290.37" y1="419.57" x2="289.77" y2="422.24"/>
		<line class="st19" x1="294.13" y1="420.76" x2="289.77" y2="422.24"/>
		<path class="st12" d="M293.87,421.08c0.17,0.14,0.43,0.12,0.57-0.06c0.14-0.17,0.12-0.43-0.06-0.57
			c-0.17-0.14-0.43-0.12-0.57,0.06C293.67,420.68,293.7,420.93,293.87,421.08z"/>
		<path class="st12" d="M291.83,416.89c0.17,0.14,0.43,0.12,0.57-0.06c0.14-0.17,0.12-0.43-0.06-0.57
			c-0.17-0.14-0.43-0.12-0.57,0.06C291.64,416.49,291.66,416.75,291.83,416.89z"/>
		<path class="st13" d="M288.67,418.61c0.17,0.14,0.43,0.12,0.57-0.06c0.14-0.17,0.12-0.43-0.06-0.57s-0.43-0.12-0.57,0.06
			C288.48,418.21,288.5,418.47,288.67,418.61z"/>
		<path class="st20" d="M291.97,419.49c0.17,0.14,0.43,0.12,0.57-0.06c0.14-0.17,0.12-0.43-0.06-0.57s-0.43-0.12-0.57,0.06
			C291.77,419.09,291.8,419.35,291.97,419.49z"/>
		<path class="st15" d="M290.11,419.88c0.17,0.14,0.43,0.12,0.57-0.06c0.14-0.17,0.12-0.43-0.06-0.57
			c-0.17-0.14-0.43-0.12-0.57,0.06C289.91,419.48,289.94,419.74,290.11,419.88z"/>
		<path class="st13" d="M289.51,422.56c0.17,0.14,0.43,0.12,0.57-0.06c0.14-0.17,0.12-0.43-0.06-0.57s-0.43-0.12-0.57,0.06
			C289.31,422.16,289.34,422.41,289.51,422.56z"/>
		<path class="st16" d="M288.7,418.58c0.16,0.13,0.39,0.11,0.53-0.05c0.13-0.16,0.11-0.39-0.05-0.53c-0.16-0.13-0.39-0.11-0.53,0.05
			C288.51,418.22,288.54,418.45,288.7,418.58z"/>
		<path class="st16" d="M289.54,422.53c0.16,0.13,0.39,0.11,0.53-0.05c0.13-0.16,0.11-0.39-0.05-0.53
			c-0.16-0.13-0.39-0.11-0.53,0.05C289.35,422.16,289.38,422.4,289.54,422.53z"/>
		<path class="st17" d="M293.91,421.03c0.15,0.12,0.37,0.1,0.49-0.05c0.12-0.15,0.1-0.37-0.05-0.49c-0.15-0.12-0.37-0.1-0.49,0.05
			C293.74,420.69,293.76,420.91,293.91,421.03z"/>
		<path class="st17" d="M291.87,416.84c0.15,0.12,0.37,0.1,0.49-0.05c0.12-0.15,0.1-0.37-0.05-0.49s-0.37-0.1-0.49,0.05
			C291.71,416.5,291.73,416.72,291.87,416.84z"/>
	</g>
</g>
</svg>
